<svg data-v-423bf9ae="" xmlns="http://www.w3.org/2000/svg" viewBox="0 0 287 90" class="iconLeft"><!----><!----><!----><g data-v-423bf9ae="" id="2f4fc13e-a844-439e-9b2f-96ecf91098b1" fill="#000000" transform="matrix(3.807106543694319,0,0,3.807106543694319,107.6779074458235,5.558375222186136)"><path d="M3.50 8.78L3.50 8.78L3.50 8.78Q3.63 8.68 3.63 8.57L3.63 8.57L3.63 8.57Q3.63 8.46 3.50 8.40L3.50 8.40L3.50 8.40Q3.37 8.34 3.20 8.31L3.20 8.31L3.20 8.31Q2.93 8.25 2.70 8.25L2.70 8.25L2.70 8.25Q2.47 8.25 2.35 8.27L2.35 8.27L2.35 8.27Q2.22 8.30 2.13 8.36L2.13 8.36L2.13 8.36Q1.94 8.49 1.94 8.82L1.94 8.82L1.94 8.82Q1.94 9.15 2.08 9.35L2.08 9.35L2.08 9.35Q2.23 9.56 2.46 9.71L2.46 9.71L2.46 9.71Q2.70 9.85 3.00 9.95L3.00 9.95L3.00 9.95Q3.30 10.04 3.61 10.13L3.61 10.13L3.61 10.13Q3.92 10.23 4.22 10.34L4.22 10.34L4.22 10.34Q4.53 10.45 4.76 10.62L4.76 10.62L4.76 10.62Q5.28 11.01 5.28 11.68L5.28 11.68L5.28 11.68Q5.28 12.34 4.65 12.97L4.65 12.97L4.65 12.97Q4.11 13.51 3.23 13.89L3.23 13.89L3.23 13.89Q2.41 14.25 1.76 14.25L1.76 14.25L1.76 14.25Q0.98 14.25 0.51 13.92L0.51 13.92L0.51 13.92Q0.34 13.79 0.34 13.60L0.34 13.60L0.34 13.60Q0.34 13.41 0.52 13.24L0.52 13.24L0.52 13.24Q0.70 13.08 0.94 12.94L0.94 12.94L0.94 12.94Q1.18 12.80 1.42 12.68L1.42 12.68L1.42 12.68Q1.65 12.55 1.78 12.41L1.78 12.41L1.78 12.41Q1.65 12.54 1.65 12.71L1.65 12.71L1.65 12.71Q1.65 12.89 1.85 13.01L1.85 13.01L1.85 13.01Q2.04 13.13 2.30 13.19L2.30 13.19L2.30 13.19Q2.75 13.30 3.17 13.30L3.17 13.30L3.17 13.30Q3.58 13.30 3.77 13.15L3.77 13.15L3.77 13.15Q3.96 13.00 3.96 12.63L3.96 12.63L3.96 12.63Q3.96 12.27 3.81 12.04L3.81 12.04L3.81 12.04Q3.67 11.81 3.44 11.65L3.44 11.65L3.44 11.65Q3.21 11.48 2.91 11.37L2.91 11.37L2.91 11.37Q2.60 11.26 2.29 11.15L2.29 11.15L2.29 11.15Q1.98 11.05 1.68 10.94L1.68 10.94L1.68 10.94Q1.38 10.83 1.15 10.67L1.15 10.67L1.15 10.67Q0.63 10.32 0.63 9.76L0.63 9.76L0.63 9.76Q0.63 9.23 1.26 8.62L1.26 8.62L1.26 8.62Q1.80 8.10 2.40 7.81L2.40 7.81L2.40 7.81Q3.42 7.31 3.94 7.31L3.94 7.31L3.94 7.31Q4.48 7.31 4.72 7.43L4.72 7.43L4.72 7.43Q4.96 7.55 4.96 7.63L4.96 7.63L4.96 7.63Q4.96 7.72 4.90 7.79L4.90 7.79L4.90 7.79Q4.85 7.85 4.77 7.91L4.77 7.91L4.77 7.91Q4.69 7.97 4.61 8.02L4.61 8.02L4.61 8.02Q4.53 8.07 4.38 8.16L4.38 8.16L4.38 8.16Q4.22 8.26 3.97 8.42L3.97 8.42L3.97 8.42Q3.72 8.58 3.50 8.78ZM5.67 8.43L5.67 8.43L5.67 8.43Q6.87 7.36 7.62 7.36L7.62 7.36L7.62 7.36Q8.24 7.36 8.31 8.04L8.31 8.04L8.31 8.04Q8.33 8.23 8.33 8.42L8.33 8.42L8.33 8.42Q9.02 7.92 9.32 7.76L9.32 7.76L9.32 7.76Q9.95 7.41 10.54 7.41L10.54 7.41L10.54 7.41Q11.14 7.41 11.60 7.64L11.60 7.64L11.60 7.64Q12.06 7.87 12.35 8.26L12.35 8.26L12.35 8.26Q12.91 9.02 12.91 10.29L12.91 10.29L12.91 10.29Q12.91 11.79 11.56 13.00L11.56 13.00L11.56 13.00Q10.75 13.73 9.73 14.04L9.73 14.04L9.73 14.04Q9.22 14.18 8.86 14.18L8.86 14.18L8.86 14.18Q8.50 14.18 8.33 14.15L8.33 14.15L8.33 16.11L8.33 16.11Q8.33 16.86 7.85 17.31L7.85 17.31L9.52 17.31L9.52 17.31Q9.45 17.32 9.28 17.46L9.28 17.46L9.28 17.46Q9.11 17.61 8.91 17.78L8.91 17.78L8.91 17.78Q8.36 18.24 8.20 18.24L8.20 18.24L6.53 18.24L6.53 18.24Q7 17.62 7 16.76L7 16.76L7 9.18L7 9.18Q7 8.73 6.89 8.58L6.89 8.58L6.89 8.58Q6.69 8.30 6.33 8.30L6.33 8.30L6.33 8.30Q5.97 8.30 5.67 8.43ZM8.33 8.96L8.33 12.28L8.33 12.28Q8.91 13.28 10.11 13.28L10.11 13.28L10.11 13.28Q11.37 13.28 11.53 12.03L11.53 12.03L11.53 12.03Q11.59 11.66 11.59 11.15L11.59 11.15L11.59 11.15Q11.59 10.65 11.46 10.13L11.46 10.13L11.46 10.13Q11.34 9.60 11.07 9.21L11.07 9.21L11.07 9.21Q10.46 8.34 9.25 8.34L9.25 8.34L9.25 8.34Q8.71 8.34 8.33 8.96L8.33 8.96ZM18.50 9.28L18.50 12.06L18.48 12.54L18.48 12.54Q18.48 13.07 18.79 13.21L18.79 13.21L18.79 13.21Q18.90 13.27 19.05 13.27L19.05 13.27L19.05 13.27Q19.29 13.27 19.54 13.16L19.54 13.16L19.54 13.16Q19.28 13.27 19.09 13.45L19.09 13.45L19.09 13.45Q18.90 13.62 18.70 13.79L18.70 13.79L18.70 13.79Q18.21 14.21 17.71 14.21L17.71 14.21L17.71 14.21Q17.21 14.21 17.18 13.63L17.18 13.63L17.18 13.63Q17.17 13.48 17.17 13.33L17.17 13.33L17.17 13.33Q15.93 14.18 14.91 14.18L14.91 14.18L14.91 14.18Q14.04 14.18 13.71 13.66L13.71 13.66L13.71 13.66Q13.58 13.47 13.58 13.13L13.58 13.13L13.58 13.13Q13.58 12.80 13.79 12.46L13.79 12.46L13.79 12.46Q13.99 12.12 14.31 11.84L14.31 11.84L14.31 11.84Q14.87 11.32 15.66 10.99L15.66 10.99L15.66 10.99Q16.25 10.73 17.17 10.70L17.17 10.70L17.17 10.40L17.17 10.40Q17.17 9.31 16.97 8.93L16.97 8.93L16.97 8.93Q16.78 8.54 16.46 8.36L16.46 8.36L16.46 8.36Q16.15 8.18 15.72 8.18L15.72 8.18L15.72 8.18Q15.00 8.18 14.46 8.46L14.46 8.46L14.46 8.46Q15.21 7.84 15.56 7.64L15.56 7.64L15.56 7.64Q16.28 7.24 16.86 7.24L16.86 7.24L16.86 7.24Q17.45 7.24 17.74 7.41L17.74 7.41L17.74 7.41Q18.03 7.58 18.20 7.86L18.20 7.86L18.20 7.86Q18.50 8.35 18.50 9.28L18.50 9.28ZM15.29 13.04L15.29 13.04L15.29 13.04Q15.45 13.16 15.67 13.21L15.67 13.21L15.67 13.21Q15.89 13.27 16.32 13.27L16.32 13.27L16.32 13.27Q16.75 13.27 17.17 13.06L17.17 13.06L17.17 11.63L16.06 11.63L16.06 11.63Q15.47 11.63 15.03 11.71L15.03 11.71L15.03 11.71Q14.94 12.00 14.94 12.27L14.94 12.27L14.94 12.27Q14.94 12.54 15.03 12.73L15.03 12.73L15.03 12.73Q15.12 12.92 15.29 13.04ZM20.92 8.16L20.03 8.16L20.92 7.46L20.92 6.49L20.92 6.49Q21.29 6.23 21.44 6.09L21.44 6.09L21.44 6.09Q21.60 5.95 21.71 5.89L21.71 5.89L21.71 5.89Q21.82 5.83 21.94 5.76L21.94 5.76L21.94 5.76Q22.23 5.59 22.25 5.56L22.25 5.56L22.25 7.23L24.44 7.23L24.44 7.23Q24.35 7.23 23.99 7.55L23.99 7.55L23.99 7.55Q23.30 8.16 23.11 8.16L23.11 8.16L22.25 8.16L22.25 11.82L22.25 11.82Q22.25 13.08 22.98 13.28L22.98 13.28L22.98 13.28Q23.19 13.33 23.39 13.33L23.39 13.33L23.39 13.33Q23.70 13.33 23.92 13.24L23.92 13.24L23.92 13.24Q24.14 13.15 24.28 13.07L24.28 13.07L24.28 13.07Q23.86 13.71 23.11 14.04L23.11 14.04L23.11 14.04Q22.72 14.21 22.27 14.21L22.27 14.21L22.27 14.21Q21.83 14.21 21.58 14.05L21.58 14.05L21.58 14.05Q21.33 13.90 21.18 13.64L21.18 13.64L21.18 13.64Q20.92 13.18 20.92 12.41L20.92 12.41L20.92 8.16ZM25.59 3.41L26.91 2.48L26.95 3.26L26.95 3.62L26.95 3.62Q26.95 3.94 26.87 4.02L26.87 4.02L26.87 4.02Q26.79 4.09 26.69 4.16L26.69 4.16L26.69 4.16Q26.31 4.43 25.59 4.89L25.59 4.89L25.59 4.89Q25.62 4.21 25.62 4.19L25.62 4.19L25.62 4.19Q25.62 4.16 25.59 3.41L25.59 3.41ZM28.34 13.24L28.34 13.24L28.34 13.24Q28.14 13.41 27.94 13.58L27.94 13.58L27.94 13.58Q27.75 13.75 27.54 13.89L27.54 13.89L27.54 13.89Q27.04 14.21 26.59 14.21L26.59 14.21L26.59 14.21Q26.17 14.21 26.00 14.08L26.00 14.08L26.00 14.08Q25.65 13.82 25.65 13.13L25.65 13.13L25.65 9.88L25.65 9.88Q25.65 9.15 25.38 8.93L25.38 8.93L25.38 8.93Q25.26 8.83 25.12 8.83L25.12 8.83L25.12 8.83Q24.97 8.83 24.87 8.84L24.87 8.84L24.87 8.84Q24.77 8.86 24.67 8.88L24.67 8.88L24.67 8.88Q24.57 8.90 24.46 8.92L24.46 8.92L24.46 8.92Q24.80 8.65 25.10 8.44L25.10 8.44L25.10 8.44Q25.40 8.23 25.61 8.09L25.61 8.09L25.61 8.09Q25.82 7.94 26.20 7.68L26.20 7.68L26.20 7.68Q26.57 7.42 26.97 7.21L26.97 7.21L26.97 12.03L26.97 12.03Q26.97 12.73 27.06 12.91L27.06 12.91L27.06 12.91Q27.25 13.29 27.91 13.29L27.91 13.29L27.91 13.29Q28.09 13.29 28.34 13.24ZM32.90 8.42L32.90 8.42L32.90 8.42Q34.00 7.43 34.51 7.43L34.51 7.43L34.51 7.43Q35.03 7.43 35.03 8.09L35.03 8.09L35.03 12.43L35.03 12.43Q35.03 12.84 35.21 13.04L35.21 13.04L35.21 13.04Q35.40 13.25 35.83 13.25L35.83 13.25L35.83 13.25Q36.13 13.25 36.42 13.14L36.42 13.14L36.42 13.14Q36.19 13.22 36.01 13.40L36.01 13.40L36.01 13.40Q35.83 13.57 35.62 13.75L35.62 13.75L35.62 13.75Q35.11 14.19 34.45 14.19L34.45 14.19L34.45 14.19Q33.82 14.19 33.74 13.49L33.74 13.49L33.74 13.49Q33.71 13.30 33.71 13.09L33.71 13.09L33.71 13.09Q32.22 14.22 31.06 14.22L31.06 14.22L31.06 14.22Q30.28 14.22 29.89 13.54L29.89 13.54L29.89 13.54Q29.53 12.92 29.53 11.85L29.53 11.85L29.53 9.55L29.53 9.55Q29.53 8.96 29.43 8.74L29.43 8.74L29.43 8.74Q29.24 8.32 28.74 8.32L28.74 8.32L28.74 8.32Q28.50 8.32 28.25 8.42L28.25 8.42L28.25 8.42Q29.09 7.68 29.61 7.48L29.61 7.48L29.61 7.48Q29.86 7.38 30.13 7.38L30.13 7.38L30.13 7.38Q30.88 7.38 30.88 8.33L30.88 8.33L30.88 8.33Q30.88 8.33 30.88 8.78L30.88 8.78L30.88 8.78Q30.88 8.78 30.87 11.33L30.87 11.33L30.87 11.33Q30.87 12.31 31.23 12.77L31.23 12.77L31.23 12.77Q31.63 13.29 32.55 13.29L32.55 13.29L32.55 13.29Q33.00 13.29 33.49 12.90L33.49 12.90L33.49 12.90Q33.61 12.80 33.71 12.74L33.71 12.74L33.71 9.13L33.71 9.13Q33.71 8.62 33.46 8.43L33.46 8.43L33.46 8.43Q33.36 8.35 33.21 8.35L33.21 8.35L33.21 8.35Q33.06 8.35 32.90 8.42ZM42.36 8.61L42.36 8.61L42.36 8.61Q43.87 7.44 44.67 7.44L44.67 7.44L44.67 7.44Q45.20 7.44 45.51 7.89L45.51 7.89L45.51 7.89Q45.77 8.26 45.77 8.83L45.77 8.83L45.77 12.09L45.77 12.09Q45.77 12.71 45.85 12.90L45.85 12.90L45.85 12.90Q46.01 13.26 46.55 13.26L46.55 13.26L46.55 13.26Q46.82 13.26 47.07 13.16L47.07 13.16L47.07 13.16Q46.46 13.69 46.22 13.84L46.22 13.84L46.22 13.84Q45.69 14.18 45.29 14.18L45.29 14.18L45.29 14.18Q44.89 14.18 44.72 14.04L44.72 14.04L44.72 14.04Q44.56 13.90 44.49 13.69L44.49 13.69L44.49 13.69Q44.41 13.45 44.41 12.70L44.41 12.70L44.41 10.12L44.41 10.12Q44.41 9.37 44.27 9.05L44.27 9.05L44.27 9.05Q44.13 8.72 43.93 8.56L43.93 8.56L43.93 8.56Q43.72 8.39 43.45 8.39L43.45 8.39L43.45 8.39Q43.17 8.39 43.02 8.48L43.02 8.48L43.02 8.48Q42.87 8.56 42.76 8.69L42.76 8.69L42.76 8.69Q42.35 9.17 42.35 10.26L42.35 10.26L42.35 12.20L42.35 12.20Q42.35 12.71 42.46 12.90L42.46 12.90L42.46 12.90Q42.66 13.26 43.14 13.26L43.14 13.26L43.14 13.26Q43.42 13.26 43.66 13.16L43.66 13.16L43.66 13.16Q43.05 13.69 42.82 13.84L42.82 13.84L42.82 13.84Q42.29 14.18 41.89 14.18L41.89 14.18L41.89 14.18Q41.49 14.18 41.32 14.04L41.32 14.04L41.32 14.04Q41.15 13.90 41.08 13.69L41.08 13.69L41.08 13.69Q41.01 13.45 41.01 12.70L41.01 12.70L41.01 10.12L41.01 10.12Q41.01 9.37 40.87 9.05L40.87 9.05L40.87 9.05Q40.73 8.72 40.52 8.56L40.52 8.56L40.52 8.56Q40.32 8.39 40.03 8.39L40.03 8.39L40.03 8.39Q39.74 8.39 39.59 8.50L39.59 8.50L39.59 8.50Q39.43 8.61 39.32 8.79L39.32 8.79L39.32 8.79Q39.20 8.98 39.14 9.20L39.14 9.20L39.14 9.20Q39.07 9.43 39.03 9.67L39.03 9.67L39.03 9.67Q38.96 10.08 38.96 10.53L38.96 10.53L38.96 12.64L38.96 12.64Q38.96 13.08 39.23 13.23L39.23 13.23L39.23 13.23Q39.33 13.30 39.47 13.30L39.47 13.30L39.47 13.30Q39.61 13.30 39.77 13.23L39.77 13.23L39.77 13.23Q38.99 13.90 38.66 14.06L38.66 14.06L38.66 14.06Q38.34 14.22 38.15 14.22L38.15 14.22L38.15 14.22Q37.63 14.22 37.63 13.62L37.63 13.62L37.63 9.68L37.63 9.68Q37.63 9.44 37.64 9.20L37.64 9.20L37.64 9.20Q37.65 8.96 37.59 8.76L37.59 8.76L37.59 8.76Q37.46 8.33 36.85 8.33L36.85 8.33L36.85 8.33Q36.55 8.33 36.26 8.44L36.26 8.44L36.26 8.44Q36.44 8.38 36.72 8.12L36.72 8.12L36.72 8.12Q37.26 7.63 37.47 7.55L37.47 7.55L37.47 7.55Q37.91 7.39 38.21 7.39L38.21 7.39L38.21 7.39Q38.51 7.39 38.66 7.50L38.66 7.50L38.66 7.50Q38.81 7.61 38.88 7.78L38.88 7.78L38.88 7.78Q38.96 7.99 38.96 8.60L38.96 8.60L38.96 8.60Q39.85 7.90 40.69 7.57L40.69 7.57L40.69 7.57Q41.00 7.44 41.25 7.44L41.25 7.44L41.25 7.44Q41.51 7.44 41.70 7.54L41.70 7.54L41.70 7.54Q41.90 7.64 42.03 7.80L42.03 7.80L42.03 7.80Q42.31 8.13 42.36 8.61Z"></path></g><defs data-v-423bf9ae=""><linearGradient data-v-423bf9ae="" gradientTransform="rotate(25)" id="086a9068-3cd4-4208-a061-cd9cad6c790e" x1="0%" y1="0%" x2="100%" y2="0%"><stop data-v-423bf9ae="" offset="0%" style="stop-color: rgb(0, 118, 221); stop-opacity: 1;"></stop><stop data-v-423bf9ae="" offset="100%" style="stop-color: rgb(230, 0, 233); stop-opacity: 1;"></stop></linearGradient></defs><g data-v-423bf9ae="" id="fbccaab1-6bb8-4a90-91ef-dc6b7d1f7091" transform="matrix(1.0076807329904203,0,0,1.0076807329904203,-2.5125548546186423,-4.0326815160907685)" stroke="none" fill="url(#086a9068-3cd4-4208-a061-cd9cad6c790e)"><path d="M84.554 4.255c-3.956 0-7.176 3.219-7.176 7.174 0 .387.039.765.099 1.135-4.092 2.764-9.443 7-15.568 12.325a31.995 31.995 0 0 0-13.796-3.113c-4.216 0-8.241.823-11.934 2.303-8.546-4.33-15.099-4.867-18.489-1.478-3.615 3.615-2.559 10.319 1.195 17.912a31.978 31.978 0 0 0-2.954 13.445c0 4.956 1.127 9.652 3.138 13.851C.588 89.162 3.108 91.712 4.198 92.802c.469.469 1.055.767 1.897.767 1.784 0 4.716-1.335 10.114-5.214 3.358-2.414 7.331-5.58 11.733-9.347 5.522 4.455 12.538 7.131 20.169 7.131a31.978 31.978 0 0 0 14.39-3.409c3.422 1.423 6.504 2.168 9.096 2.168 2.577 0 4.677-.725 6.17-2.218 3.033-3.033 2.954-8.486-.202-15.778a32 32 0 0 0 2.728-12.943c0-7.611-2.661-14.608-7.095-20.124 5.15-5.988 9.264-11.255 11.862-15.254 3.721-.262 6.67-3.365 6.67-7.15a7.184 7.184 0 0 0-7.176-7.176zM68.88 33.851c-5.615 6.406-12.317 13.548-19.557 20.787a523.53 523.53 0 0 1-3.659 3.618 8.591 8.591 0 0 0-10.053.112c-5.973-6.453-10.321-12.584-13.106-17.84 4.847-9.204 14.504-15.497 25.608-15.497 8.143-.001 15.504 3.386 20.767 8.82zM35.322 65.33a5.396 5.396 0 0 1 5.391-5.39 5.396 5.396 0 0 1 5.39 5.39 5.395 5.395 0 0 1-5.39 5.389 5.396 5.396 0 0 1-5.391-5.389zM19.991 24.902c1.997-1.996 6.534-1.603 12.413.984a32.427 32.427 0 0 0-11.606 11.085c-2.482-5.809-2.717-10.159-.807-12.069zm13.398 35.859a8.566 8.566 0 0 0-.016 9.111 367.435 367.435 0 0 1-5.405 4.817c-5.411-5.26-8.783-12.608-8.783-20.731 0-3.423.602-6.707 1.697-9.756 3.217 5.511 7.614 11.284 12.507 16.559zM6.826 90.183c.652-2.084 4.084-7.877 13.913-19.329a32.42 32.42 0 0 0 4.756 5.971C15.18 85.626 9.106 89.5 6.826 90.183zm41.286-7.298a28.777 28.777 0 0 1-17.665-6.044 350.026 350.026 0 0 0 5.129-4.575 8.596 8.596 0 0 0 5.136 1.707 8.592 8.592 0 0 0 5.076-1.663c4.52 3.62 8.853 6.503 12.835 8.59a28.776 28.776 0 0 1-10.511 1.985zm27.356-2.507c-1.517 1.516-4.78 1.675-9.296.201a32.417 32.417 0 0 0 9.397-9.857c1.572 4.553 1.559 7.997-.101 9.656zm1.57-26.42c0 10.755-5.903 20.15-14.637 25.135-4.148-1.89-9.028-4.896-14.386-9.16a8.59 8.59 0 0 0-.083-9.344 511.648 511.648 0 0 0 3.691-3.65c7.151-7.151 13.796-14.222 19.403-20.606a28.77 28.77 0 0 1 6.012 17.625zM64.959 26.553c5.377-4.637 10.091-8.369 13.792-10.919a7.221 7.221 0 0 0 2.82 2.314c-2.49 3.659-6.115 8.261-10.553 13.435a32.34 32.34 0 0 0-6.059-4.83zm19.595-11.201a3.927 3.927 0 0 1-3.922-3.922c0-2.162 1.76-3.92 3.922-3.92a3.926 3.926 0 0 1 3.923 3.92 3.927 3.927 0 0 1-3.923 3.922z"></path><circle cx="84.426" cy="36.093" r="2.88"></circle><circle cx="63.021" cy="64.038" r="5.941"></circle><circle cx="42.211" cy="77.572" r="1.249"></circle><circle cx="70.555" cy="46.986" r="1.248"></circle><circle cx="40.963" cy="32.373" r="1.861"></circle><circle cx="24.738" cy="62.178" r="1.861"></circle><circle cx="42.425" cy="46.986" r="3.323"></circle></g><!----></svg>